<mxfile host="app.diagrams.net" modified="2023-10-18T12:55:19.648Z" agent="Mozilla/5.0 (Windows NT 10.0; Win64; x64) AppleWebKit/537.36 (KHTML, like Gecko) Chrome/118.0.0.0 Safari/537.36 Edg/118.0.2088.46" etag="xkUKR3_Slr_J2uRgl1HB" version="22.0.4" type="github">
  <diagram id="C5RBs43oDa-KdzZeNtuy" name="Page-1">
    <mxGraphModel dx="1386" dy="917" grid="1" gridSize="10" guides="1" tooltips="1" connect="1" arrows="1" fold="1" page="1" pageScale="1" pageWidth="827" pageHeight="1169" math="0" shadow="0">
      <root>
        <mxCell id="WIyWlLk6GJQsqaUBKTNV-0" />
        <mxCell id="WIyWlLk6GJQsqaUBKTNV-1" parent="WIyWlLk6GJQsqaUBKTNV-0" />
        <mxCell id="gCMhwsNrOhcXKMDoLOBa-1" value="UnitConverter()" style="swimlane;whiteSpace=wrap;html=1;startSize=30;" vertex="1" parent="WIyWlLk6GJQsqaUBKTNV-1">
          <mxGeometry x="30" y="20" width="200" height="250" as="geometry" />
        </mxCell>
        <mxCell id="gCMhwsNrOhcXKMDoLOBa-2" value="&lt;b&gt;Input:&lt;/b&gt;&lt;br&gt;&lt;ul style=&quot;&quot;&gt;&lt;li style=&quot;&quot;&gt;UnitNumber&lt;/li&gt;&lt;li style=&quot;&quot;&gt;Multiple values, with same value&lt;/li&gt;&lt;/ul&gt;&lt;br&gt;&lt;b&gt;Functions&lt;/b&gt;&lt;br&gt;&lt;ul style=&quot;&quot;&gt;&lt;li style=&quot;&quot;&gt;Create Lookup tables&lt;/li&gt;&lt;li style=&quot;&quot;&gt;Convert from unit to unit&lt;/li&gt;&lt;/ul&gt;" style="whiteSpace=wrap;html=1;align=left;" vertex="1" parent="gCMhwsNrOhcXKMDoLOBa-1">
          <mxGeometry y="30" width="200" height="220" as="geometry" />
        </mxCell>
        <mxCell id="gCMhwsNrOhcXKMDoLOBa-4" value="File Containing Unit data" style="swimlane;whiteSpace=wrap;html=1;startSize=30;" vertex="1" parent="WIyWlLk6GJQsqaUBKTNV-1">
          <mxGeometry x="30" y="290" width="490" height="290" as="geometry" />
        </mxCell>
        <mxCell id="gCMhwsNrOhcXKMDoLOBa-5" value="Type: json format&lt;br&gt;{&lt;br&gt;dimension: {&lt;br&gt;&lt;span style=&quot;&quot;&gt;&lt;span style=&quot;white-space: pre;&quot;&gt;&amp;nbsp;&amp;nbsp;&amp;nbsp;&amp;nbsp;&lt;/span&gt;&lt;/span&gt;&lt;span style=&quot;&quot;&gt;&lt;span style=&quot;white-space: pre;&quot;&gt;&amp;nbsp;&amp;nbsp;&amp;nbsp;&amp;nbsp;&lt;/span&gt;&lt;/span&gt;&amp;nbsp; &amp;nbsp; reference unit: 1,&lt;br&gt;&lt;span style=&quot;&quot;&gt;&lt;span style=&quot;white-space: pre;&quot;&gt;&amp;nbsp;&amp;nbsp;&amp;nbsp;&amp;nbsp;&lt;/span&gt;&lt;/span&gt;&lt;span style=&quot;&quot;&gt;&lt;span style=&quot;white-space: pre;&quot;&gt;&amp;nbsp;&amp;nbsp;&amp;nbsp;&amp;nbsp;&lt;/span&gt;&lt;/span&gt;&amp;nbsp; &amp;nbsp; unit1: multiplication factor to convert to reference unit,&lt;br&gt;&lt;span style=&quot;&quot;&gt;&lt;span style=&quot;white-space: pre;&quot;&gt;&amp;nbsp;&amp;nbsp;&amp;nbsp;&amp;nbsp;&lt;/span&gt;&lt;/span&gt;&lt;span style=&quot;&quot;&gt;&lt;span style=&quot;white-space: pre;&quot;&gt;&amp;nbsp;&amp;nbsp;&amp;nbsp;&amp;nbsp;&lt;/span&gt;&lt;/span&gt;&amp;nbsp; &amp;nbsp; unit2: multiplication factor&amp;nbsp;to convert to reference unit,&lt;br&gt;&lt;span style=&quot;&quot;&gt;&lt;span style=&quot;white-space: pre;&quot;&gt;&amp;nbsp;&amp;nbsp;&amp;nbsp;&amp;nbsp;&lt;/span&gt;&lt;/span&gt;&lt;span style=&quot;&quot;&gt;&lt;span style=&quot;white-space: pre;&quot;&gt;&amp;nbsp;&amp;nbsp;&amp;nbsp;&amp;nbsp;&lt;/span&gt;&lt;/span&gt;&amp;nbsp; }&lt;br&gt;}&lt;br&gt;&lt;br&gt;&lt;ol&gt;&lt;li&gt;Register unit in correct dimension&lt;/li&gt;&lt;li&gt;Register the multiplication factor to get relation for unit to the reference unit&lt;/li&gt;&lt;/ol&gt;" style="whiteSpace=wrap;html=1;align=left;" vertex="1" parent="gCMhwsNrOhcXKMDoLOBa-4">
          <mxGeometry y="30" width="490" height="260" as="geometry" />
        </mxCell>
        <mxCell id="gCMhwsNrOhcXKMDoLOBa-6" value="Create Conversion Table for a dimension" style="swimlane;whiteSpace=wrap;html=1;startSize=30;" vertex="1" parent="WIyWlLk6GJQsqaUBKTNV-1">
          <mxGeometry x="30" y="600" width="200" height="250" as="geometry" />
        </mxCell>
        <mxCell id="gCMhwsNrOhcXKMDoLOBa-7" value="&lt;ol&gt;&lt;li&gt;Get conversion data from configuration file.&lt;/li&gt;&lt;li&gt;For each dimension, get array of multiplication factors&lt;/li&gt;&lt;li&gt;Take the outer product between&lt;/li&gt;&lt;/ol&gt;" style="whiteSpace=wrap;html=1;align=left;" vertex="1" parent="gCMhwsNrOhcXKMDoLOBa-6">
          <mxGeometry y="30" width="200" height="220" as="geometry" />
        </mxCell>
      </root>
    </mxGraphModel>
  </diagram>
</mxfile>
